<svg width="737" height="350" viewBox="0 0 737 350" fill="none" xmlns="http://www.w3.org/2000/svg">
<rect width="737" height="350" fill="#AEB5BC"/>
<g clip-path="url(#clip0)">
<path fill-rule="evenodd" clip-rule="evenodd" d="M389.312 159.375H348.688C348.273 159.375 347.876 159.54 347.583 159.833C347.29 160.126 347.125 160.523 347.125 160.938V189.062C347.125 189.477 347.29 189.874 347.583 190.167C347.876 190.46 348.273 190.625 348.688 190.625H389.312C389.727 190.625 390.124 190.46 390.417 190.167C390.71 189.874 390.875 189.477 390.875 189.062V160.938C390.875 160.523 390.71 160.126 390.417 159.833C390.124 159.54 389.727 159.375 389.312 159.375ZM348.688 156.25C347.444 156.25 346.252 156.744 345.373 157.623C344.494 158.502 344 159.694 344 160.938V189.062C344 190.306 344.494 191.498 345.373 192.377C346.252 193.256 347.444 193.75 348.688 193.75H389.312C390.556 193.75 391.748 193.256 392.627 192.377C393.506 191.498 394 190.306 394 189.062V160.938C394 159.694 393.506 158.502 392.627 157.623C391.748 156.744 390.556 156.25 389.312 156.25H348.688Z" fill="black"/>
<path d="M377.275 173.894C377.507 173.662 377.806 173.51 378.129 173.457C378.453 173.405 378.785 173.456 379.078 173.603L390.881 179.687V190.625H347.131V187.5L355.4 180.144C355.655 179.889 355.991 179.731 356.349 179.695C356.708 179.66 357.068 179.75 357.368 179.95L365.681 185.49L377.275 173.897V173.894Z" fill="black"/>
<path fill-rule="evenodd" clip-rule="evenodd" d="M358.068 171.875C358.684 171.875 359.293 171.754 359.862 171.518C360.431 171.283 360.948 170.937 361.383 170.502C361.818 170.067 362.163 169.55 362.399 168.981C362.635 168.413 362.756 167.803 362.756 167.188C362.756 166.572 362.635 165.962 362.399 165.394C362.163 164.825 361.818 164.308 361.383 163.873C360.948 163.438 360.431 163.092 359.862 162.857C359.293 162.621 358.684 162.5 358.068 162.5C356.825 162.5 355.633 162.994 354.754 163.873C353.875 164.752 353.381 165.944 353.381 167.188C353.381 168.431 353.875 169.623 354.754 170.502C355.633 171.381 356.825 171.875 358.068 171.875Z" fill="black"/>
</g>
<defs>
<clipPath id="clip0">
<rect width="50" height="50" fill="white" transform="translate(344 150)"/>
</clipPath>
</defs>
</svg>
